<svg width="128" height="128" viewBox="0 0 128 128" fill="none" xmlns="http://www.w3.org/2000/svg">
<path d="M116.65 4.83008H11.36C7.75358 4.83008 4.83 7.75366 4.83 11.3601V116.65C4.83 120.257 7.75358 123.18 11.36 123.18H116.65C120.256 123.18 123.18 120.257 123.18 116.65V11.3601C123.18 7.75366 120.256 4.83008 116.65 4.83008Z" fill="#3D5A98"/>
<path d="M86.48 123.17V77.3399H101.86L104.16 59.4799H86.48V48.0799C86.48 42.9099 87.92 39.3799 95.33 39.3799H104.79V23.3799C100.209 22.9034 95.6056 22.6764 91 22.6999C77.38 22.6999 68 30.9999 68 46.3099V59.4799H52.62V77.3399H68V123.17H86.48Z" fill="white"/>
</svg>
